# xmcd
#
# Track frame offsets:
#  150
#  11842
#  22119
#  30789
#  40090
#  50684
#  60221
#  68491
#  77292
#  87784
#  96049
#  103655
#  112006
#  120268
#  130550
#  139823
#  150309
#  160664
#  172473
#  184368
#  195795
#  207759
#  217864
#  228800
#  238828
#
# Disc length: 3327 seconds
#
# Revision: 0
# Processed by: cddbd v1.5.1PL2 Copyright (c) Steve Scherf et al.
# Submitted via: Collectorz.com_Music_Collector 6.9
#
DISCID=310cfd19
DTITLE=Various Artist - Doo-Bop-Jivers - Volume 05
DYEAR=1996
DGENRE=Doo-Wop
TTITLE0=Big Boys, The - Rock Rock Rock A Bye Baby
TTITLE1=Williams Quartet, Billy - Shame Shame Shame
TTITLE2=Woodchoppers, The - Caldonia
TTITLE3=Gondoliers, The - You Call Everybody Darling
TTITLE4=Flairs, The - She Loves To Rock
TTITLE5=Penguins, The - Promises Promises Promises
TTITLE6=Carnations, The - Gimme' Gimme' Gimme'
TTITLE7=Flairs, The - Steppin' Out
TTITLE8=Quintones, The - My Girl Ivy
TTITLE9=Hammer Brothers, The - Girl Girl Girl
TTITLE10=Five Keys, The - Really-O, Truely-O
TTITLE11=Cheers, The - Big Feet
TTITLE12=Beavers, The - Sack Dress
TTITLE13=Four Dates, The - I Say Babe
TTITLE14=Vox Poppers, The - Come Back Little Girl
TTITLE15=Cheers, The - Chug Chug, Toot Toot
TTITLE16=X Rays, The - Chinchilla
TTITLE17=Vondells, The - Lenora
TTITLE18=Armorettes, The - No More Crying
TTITLE19=Rivingtons, The - Old Time Love
TTITLE20=Five Satins, The - Ain't Gonna Dance
TTITLE21=Sierras, The - I'll Believe It When I See It
TTITLE22=Aladdins, The - I'll Kiss Your Teardrops Away
TTITLE23=Chevel, The - It's Goodbye
TTITLE24=Versatiles, The - Just Words
EXTD=
EXTT0=
EXTT1=
EXTT2=
EXTT3=
EXTT4=
EXTT5=
EXTT6=
EXTT7=
EXTT8=
EXTT9=
EXTT10=
EXTT11=
EXTT12=
EXTT13=
EXTT14=
EXTT15=
EXTT16=
EXTT17=
EXTT18=
EXTT19=
EXTT20=
EXTT21=
EXTT22=
EXTT23=
EXTT24=
PLAYORDER=
